<svg width="360" height="100" viewBox="0 0 360 100" fill="none" xmlns="http://www.w3.org/2000/svg">
<rect x="2" y="2" width="356" height="96" stroke="black" stroke-width="4"/>
<rect x="2" y="2" width="356" height="96" stroke="black" stroke-opacity="0.2" stroke-width="4"/>
<path d="M95.5156 66V34H100.344V49.2812H100.734L114.156 34H120.234L107.328 48.4062L120.281 66H114.469L104.125 51.7031L100.344 56.0469V66H95.5156ZM124.734 66V34H144.797V38.1562H129.563V47.9062H143.75V52.0469H129.563V61.8438H144.984V66H124.734ZM148.777 34H154.262L162.621 48.5469H162.965L171.324 34H176.809L165.199 53.4375V66H160.387V53.4375L148.777 34ZM206.313 44.4062H201.438C201.25 43.3646 200.901 42.4479 200.391 41.6562C199.88 40.8646 199.255 40.1927 198.516 39.6406C197.776 39.0885 196.948 38.6719 196.031 38.3906C195.125 38.1094 194.161 37.9687 193.141 37.9687C191.297 37.9687 189.646 38.4323 188.188 39.3594C186.74 40.2865 185.594 41.6458 184.75 43.4375C183.917 45.2292 183.5 47.4167 183.5 50C183.5 52.6042 183.917 54.8021 184.75 56.5937C185.594 58.3854 186.745 59.7396 188.203 60.6562C189.661 61.5729 191.302 62.0312 193.125 62.0312C194.135 62.0312 195.094 61.8958 196 61.625C196.917 61.3437 197.745 60.9323 198.484 60.3906C199.224 59.849 199.849 59.1875 200.359 58.4062C200.88 57.6146 201.24 56.7083 201.438 55.6875L206.313 55.7031C206.052 57.276 205.547 58.724 204.797 60.0469C204.057 61.3594 203.104 62.4948 201.938 63.4531C200.781 64.401 199.458 65.1354 197.969 65.6562C196.479 66.1771 194.854 66.4375 193.094 66.4375C190.323 66.4375 187.854 65.7812 185.688 64.4687C183.521 63.1458 181.813 61.2552 180.563 58.7969C179.323 56.3385 178.703 53.4062 178.703 50C178.703 46.5833 179.328 43.651 180.578 41.2031C181.828 38.7448 183.536 36.8594 185.703 35.5469C187.87 34.224 190.333 33.5625 193.094 33.5625C194.792 33.5625 196.375 33.8073 197.844 34.2969C199.323 34.776 200.651 35.4844 201.828 36.4219C203.005 37.349 203.979 38.4844 204.75 39.8281C205.521 41.1615 206.042 42.6875 206.313 44.4062ZM214.578 66H209.453L220.969 34H226.547L238.063 66H232.938L223.891 39.8125H223.641L214.578 66ZM215.438 53.4687H232.062V57.5312H215.438V53.4687ZM242.684 66V34H254.09C256.579 34 258.642 34.4531 260.277 35.3594C261.913 36.2656 263.137 37.5052 263.949 39.0781C264.762 40.6406 265.168 42.401 265.168 44.3594C265.168 46.3281 264.757 48.099 263.934 49.6719C263.121 51.2344 261.892 52.474 260.246 53.3906C258.611 54.2969 256.553 54.75 254.074 54.75H246.23V50.6562H253.637C255.21 50.6562 256.486 50.3854 257.465 49.8438C258.444 49.2917 259.163 48.5417 259.621 47.5937C260.079 46.6458 260.309 45.5677 260.309 44.3594C260.309 43.151 260.079 42.0781 259.621 41.1406C259.163 40.2031 258.439 39.4687 257.449 38.9375C256.47 38.4062 255.178 38.1406 253.574 38.1406H247.512V66H242.684Z" fill="black"/>
</svg>
