<svg width="360" height="100" viewBox="0 0 360 100" fill="none" xmlns="http://www.w3.org/2000/svg">
<rect x="2" y="2" width="356" height="96" stroke="black" stroke-width="4"/>
<rect x="2" y="2" width="356" height="96" stroke="black" stroke-opacity="0.2" stroke-width="4"/>
<path d="M94.4219 66V34H102.156V47.5312H102.578L113.156 34H122.266L110.922 48.2812L122.469 66H113.219L105.25 53.4219L102.156 57.3281V66H94.4219ZM125.316 66V34H147.629V40.2812H133.051V46.8437H146.488V53.1406H133.051V59.7187H147.629V66H125.316ZM150.879 34H159.52L166.285 47.3906H166.566L173.332 34H181.973L170.27 55.3125V66H162.582V55.3125L150.879 34ZM212.156 45.5937H204.344C204.24 44.7917 204.026 44.0677 203.703 43.4219C203.38 42.776 202.953 42.224 202.422 41.7656C201.891 41.3073 201.26 40.9583 200.531 40.7187C199.813 40.4687 199.016 40.3437 198.141 40.3437C196.589 40.3437 195.25 40.724 194.125 41.4844C193.01 42.2448 192.151 43.3437 191.547 44.7812C190.953 46.2187 190.656 47.9583 190.656 50C190.656 52.125 190.958 53.9062 191.563 55.3438C192.177 56.7708 193.036 57.849 194.141 58.5781C195.255 59.2969 196.573 59.6562 198.094 59.6562C198.948 59.6562 199.724 59.5469 200.422 59.3281C201.13 59.1094 201.75 58.7917 202.281 58.375C202.823 57.9479 203.266 57.4323 203.609 56.8281C203.964 56.2135 204.208 55.5208 204.344 54.75L212.156 54.7969C212.021 56.2135 211.609 57.6094 210.922 58.9844C210.245 60.3594 209.313 61.6146 208.125 62.75C206.938 63.875 205.49 64.7708 203.781 65.4375C202.083 66.1042 200.135 66.4375 197.938 66.4375C195.042 66.4375 192.448 65.8021 190.156 64.5312C187.875 63.25 186.073 61.3854 184.75 58.9375C183.427 56.4896 182.766 53.5104 182.766 50C182.766 46.4792 183.438 43.4948 184.781 41.0469C186.125 38.599 187.943 36.7396 190.234 35.4687C192.526 34.1979 195.094 33.5625 197.938 33.5625C199.875 33.5625 201.667 33.8333 203.313 34.375C204.958 34.9062 206.406 35.6875 207.656 36.7187C208.906 37.7396 209.922 38.9948 210.703 40.4844C211.484 41.974 211.969 43.6771 212.156 45.5937ZM222.688 66H214.375L225.172 34H235.469L246.266 66H237.953L230.438 42.0625H230.188L222.688 66ZM221.578 53.4062H238.953V59.2812H221.578V53.4062ZM249.711 66V34H262.93C265.326 34 267.393 34.4687 269.133 35.4062C270.883 36.3333 272.232 37.6302 273.18 39.2969C274.128 40.9531 274.602 42.8802 274.602 45.0781C274.602 47.2865 274.117 49.2187 273.148 50.875C272.19 52.5208 270.82 53.7969 269.039 54.7031C267.258 55.6094 265.143 56.0625 262.695 56.0625H254.539V49.9687H261.258C262.424 49.9687 263.398 49.7656 264.18 49.3594C264.971 48.9531 265.57 48.3854 265.977 47.6562C266.383 46.9167 266.586 46.0573 266.586 45.0781C266.586 44.0885 266.383 43.2344 265.977 42.5156C265.57 41.7865 264.971 41.224 264.18 40.8281C263.388 40.4323 262.414 40.2344 261.258 40.2344H257.445V66H249.711Z" fill="black"/>
</svg>
